<svg xmlns="http://www.w3.org/2000/svg" width="21" height="21" viewBox="0 0 21 21" fill="none">
  <path d="M12.908 1.67505C12.3566 2.43294 12.0312 3.36598 12.0312 4.375C12.0312 6.85974 14.004 8.88373 16.4687 8.96614L16.4694 8.97605C16.4823 9.14869 16.4955 9.32674 16.5135 9.49811C16.7201 11.4647 17.1933 12.8138 17.647 13.7009C17.9491 14.2917 18.2454 14.6834 18.4557 14.9202C18.561 15.0387 18.6452 15.119 18.6984 15.1662C18.725 15.1899 18.7439 15.2053 18.7538 15.2132L18.7614 15.2191C18.9899 15.3854 19.0864 15.6796 19.0003 15.9493C18.9135 16.2213 18.6607 16.4059 18.3752 16.4059L2.62505 16.4063C2.33951 16.4063 2.08674 16.2216 1.99989 15.9496C1.91378 15.6799 2.01036 15.3857 2.2388 15.2195L2.24643 15.2135C2.25636 15.2056 2.27524 15.1902 2.30185 15.1665C2.35504 15.1193 2.43924 15.039 2.54454 14.9205C2.75481 14.6837 3.05113 14.292 3.35326 13.7012C3.95624 12.5221 4.5938 10.5267 4.5938 7.35C4.5938 5.70392 5.20644 4.11741 6.30898 2.94137C7.41286 1.76389 8.91944 1.09375 10.5 1.09375C10.8346 1.09375 11.1661 1.1238 11.4915 1.18247C11.6993 1.21994 12.3824 1.43275 12.908 1.67505Z" fill="black"/>
  <path d="M13.3438 4.375C13.3438 2.56282 14.8128 1.09375 16.625 1.09375C18.4372 1.09375 19.9062 2.56282 19.9062 4.375C19.9062 6.18718 18.4372 7.65625 16.625 7.65625C14.8128 7.65625 13.3438 6.18718 13.3438 4.375Z" fill="black"/>
  <path d="M9.55361 18.0458C9.37174 17.7323 8.97017 17.6256 8.65666 17.8075C8.34315 17.9893 8.23643 18.3909 8.41829 18.7044C8.62981 19.069 8.93342 19.3717 9.29871 19.5821C9.664 19.7925 10.0781 19.9033 10.4997 19.9033C10.9212 19.9033 11.3354 19.7925 11.7007 19.5821C12.066 19.3717 12.3696 19.069 12.5811 18.7044C12.763 18.3909 12.6562 17.9893 12.3427 17.8075C12.0292 17.6256 11.6277 17.7323 11.4458 18.0458C11.3496 18.2116 11.2116 18.3491 11.0456 18.4448C10.8796 18.5404 10.6913 18.5908 10.4997 18.5908C10.3081 18.5908 10.1198 18.5404 9.95379 18.4448C9.78775 18.3491 9.64975 18.2116 9.55361 18.0458Z" fill="black"/>
</svg>