<svg width="60" height="60" viewBox="0 0 60 60" fill="none" xmlns="http://www.w3.org/2000/svg">
<rect width="60" height="60" rx="8" fill="white"/>
<path d="M40.8035 27.4247V23.3035H34.9043V44.9706H40.8035V34.2611C40.8035 30.3329 42.8709 28.1689 45.917 28.1689C48.9631 28.1689 48.3291 28.4584 49.4593 29.1062L49.9004 23.6067C49.2663 23.0692 48.1775 22.7246 46.8543 22.7246C43.8633 22.7246 41.6029 24.985 40.8173 27.4384L40.8035 27.4247Z" fill="#3F4040"/>
<path d="M16.1991 27.8661C16.0199 27.6456 15.6753 27.6456 15.5099 27.8661L11.0993 33.4345C10.865 33.7239 11.0717 34.1512 11.4439 34.1512H12.7533V44.3369C12.7533 44.7091 13.0565 45.0123 13.4287 45.0123H18.239C18.6111 45.0123 18.9143 44.7091 18.9143 44.3369V34.1512H20.2651C20.6372 34.1512 20.844 33.7239 20.6097 33.4345L16.1991 27.8661Z" fill="#7F9FD3"/>
<path d="M34.9443 14.8132C34.9443 14.3584 34.5721 14 34.1311 14H13.5666C13.1118 14 12.7534 14.3721 12.7534 14.8132V25.6468C12.7534 26.1016 13.1256 26.46 13.5666 26.46H18.0875C18.5423 26.46 18.9007 26.0878 18.9007 25.6468V19.9405C18.9007 19.4857 19.2728 19.1273 19.7139 19.1273H34.1173C34.5721 19.1273 34.9305 18.7552 34.9305 18.3141V14.827L34.9443 14.8132Z" fill="#3F4040"/>
<path d="M32.8067 27.8105H21.2289H19.8506C19.1752 27.8105 18.7893 28.5824 19.2028 29.1337L21.794 32.5244C21.9456 32.7311 22.1937 32.8414 22.4418 32.8414H32.8205C33.2754 32.8414 33.6337 32.4693 33.6337 32.0282V28.6513C33.6337 28.1965 33.2616 27.8381 32.8205 27.8381L32.8067 27.8105Z" fill="#3F4040"/>
</svg>
