<svg xmlns="http://www.w3.org/2000/svg" width="20" height="20" viewBox="0 0 20 20" fill="none">
  <path fill-rule="evenodd" clip-rule="evenodd" d="M7.38128 6.45899L5.95271 6.459C3.91395 6.459 2.29199 8.06053 2.29199 9.99868C2.29199 11.6694 3.49489 13.0882 5.13491 13.4498C5.39725 13.5077 5.67088 13.5384 5.95271 13.5384C6.29788 13.5384 6.57771 13.8182 6.57771 14.1634C6.57771 14.5085 6.29788 14.7884 5.95271 14.7884C5.57987 14.7884 5.216 14.7477 4.86574 14.6705C2.68864 14.1904 1.04199 12.292 1.04199 9.99868C1.04199 7.33666 3.25759 5.209 5.95271 5.209L7.38128 5.20899C10.0848 5.20899 12.292 7.58051 12.292 9.99868C12.292 10.3439 12.0122 10.6237 11.667 10.6237C11.3218 10.6237 11.042 10.3439 11.042 9.99868C11.042 8.26397 9.38757 6.45899 7.38128 6.45899Z" fill="#656579"/>
  <path fill-rule="evenodd" clip-rule="evenodd" d="M12.6194 13.5384L14.0479 13.5384C16.0867 13.5384 17.7087 11.9368 17.7087 9.99867C17.7087 8.32792 16.5058 6.90915 14.8657 6.54752C14.6034 6.48968 14.3298 6.45898 14.0479 6.45898C13.7028 6.45898 13.4229 6.17916 13.4229 5.83398C13.4229 5.48881 13.7028 5.20898 14.0479 5.20898C14.4208 5.20898 14.7847 5.24961 15.1349 5.32685C17.312 5.80691 18.9587 7.7054 18.9587 9.99867C18.9587 12.6607 16.7431 14.7884 14.0479 14.7884L12.6194 14.7884C9.91585 14.7884 7.70866 12.4168 7.70866 9.99867C7.70866 9.65349 7.98848 9.37367 8.33366 9.37367C8.67884 9.37367 8.95866 9.65349 8.95866 9.99867C8.95866 11.7334 10.6131 13.5384 12.6194 13.5384Z" fill="#656579"/>
</svg>