<svg xmlns="http://www.w3.org/2000/svg" width="20" height="20" viewBox="0 0 20 20" fill="none">
  <path fill-rule="evenodd" clip-rule="evenodd" d="M16.9302 11.0905C14.1513 4.91516 5.84899 4.91516 3.07011 11.0905C2.92846 11.4052 2.55845 11.5456 2.24368 11.4039C1.9289 11.2623 1.78855 10.8923 1.9302 10.5775C5.15132 3.41948 14.849 3.41948 18.0701 10.5775C18.2118 10.8923 18.0714 11.2623 17.7566 11.4039C17.4419 11.5456 17.0719 11.4052 16.9302 11.0905Z" fill="white"/>
  <path fill-rule="evenodd" clip-rule="evenodd" d="M10.0002 9.79232C11.0357 9.79232 11.8752 10.6318 11.8752 11.6673C11.8752 12.7029 11.0357 13.5423 10.0002 13.5423C8.96462 13.5423 8.12515 12.7029 8.12515 11.6673C8.12515 10.6318 8.96462 9.79232 10.0002 9.79232ZM13.1252 11.6673C13.1252 9.94143 11.726 8.54232 10.0002 8.54232C8.27426 8.54232 6.87515 9.94143 6.87515 11.6673C6.87515 13.3932 8.27426 14.7923 10.0002 14.7923C11.726 14.7923 13.1252 13.3932 13.1252 11.6673Z" fill="white"/>
</svg>