<svg xmlns="http://www.w3.org/2000/svg" width="30" height="31" viewBox="0 0 30 31" fill="none">
    <path
        d="M13.2027 2.87375L1.40399 27.0587C1.29073 27.2912 1.23847 27.5486 1.25213 27.8068C1.26579 28.0649 1.34492 28.3154 1.48207 28.5346C1.61922 28.7537 1.80988 28.9344 2.03611 29.0596C2.26234 29.1847 2.51669 29.2503 2.77524 29.25H2.81899C3.02337 29.2499 3.22698 29.2247 3.42524 29.175L12.7052 26.855C12.8289 26.8239 12.94 26.7557 13.0238 26.6597C13.1076 26.5636 13.16 26.4442 13.174 26.3175L14.3077 16.1212C14.3281 15.9516 14.41 15.7953 14.5378 15.6819C14.6657 15.5685 14.8306 15.5059 15.0015 15.5059C15.1724 15.5059 15.3373 15.5685 15.4651 15.6819C15.593 15.7953 15.6748 15.9516 15.6952 16.1212L16.829 26.3175C16.843 26.4442 16.8954 26.5636 16.9792 26.6597C17.063 26.7557 17.1741 26.8239 17.2977 26.855L26.5765 29.175C26.7747 29.2247 26.9783 29.2499 27.1827 29.25H27.2265C27.4849 29.25 27.7391 29.1843 27.9652 29.0591C28.1912 28.9339 28.3817 28.7532 28.5187 28.534C28.6557 28.3149 28.7348 28.0645 28.7484 27.8064C28.762 27.5484 28.7097 27.2911 28.5965 27.0587L16.7977 2.875C16.6334 2.5382 16.3778 2.25434 16.06 2.05577C15.7422 1.8572 15.375 1.75192 15.0002 1.75192C14.6255 1.75192 14.2583 1.8572 13.9405 2.05577C13.6227 2.25434 13.367 2.53695 13.2027 2.87375Z"
        fill="#8c71f9" />
</svg>