<svg xmlns="http://www.w3.org/2000/svg" width="20" height="20" viewBox="0 0 20 20" fill="none">
  <path fill-rule="evenodd" clip-rule="evenodd" d="M4.375 16.6673C4.375 16.3221 4.65482 16.0423 5 16.0423L15 16.0423C15.3452 16.0423 15.625 16.3221 15.625 16.6673C15.625 17.0125 15.3452 17.2923 15 17.2923L5 17.2923C4.65482 17.2923 4.375 17.0125 4.375 16.6673Z" fill="#656579"/>
  <path fill-rule="evenodd" clip-rule="evenodd" d="M9.55806 13.7759C9.80214 14.02 10.1979 14.02 10.4419 13.7759L13.3586 10.8593C13.6027 10.6152 13.6027 10.2195 13.3586 9.97538C13.1145 9.7313 12.7188 9.7313 12.4747 9.97538L10.625 11.8251V3.33398C10.625 2.98881 10.3452 2.70898 10 2.70898C9.65482 2.70898 9.375 2.98881 9.375 3.33398V11.8251L7.52527 9.97538C7.2812 9.7313 6.88547 9.7313 6.64139 9.97538C6.39731 10.2195 6.39731 10.6152 6.64139 10.8593L9.55806 13.7759Z" fill="#656579"/>
</svg>